<svg xmlns="http://www.w3.org/2000/svg" viewBox="0 0 200 200">
  <!-- Background Circle -->
  <circle cx="100" cy="100" r="90" fill="#F3F4F6"/>
  
  <!-- Image Icon Base -->
  <rect x="50" y="60" width="100" height="80" rx="8" fill="#9333EA"/>
  
  <!-- Eraser Effect -->
  <path d="M150 60 L150 140 L50 140 L50 60 C50 55.582 53.582 52 58 52 L142 52 C146.418 52 150 55.582 150 60" fill="#A855F7"/>
  
  <!-- Erased/Transparent Section -->
  <path d="M120 60 L150 60 L150 140 L90 140 L120 60" fill="#C084FC" opacity="0.6"/>
  
  <!-- Sun Element -->
  <circle cx="75" cy="85" r="12" fill="#F9FAFB"/>
  
  <!-- Mountain Silhouette -->
  <path d="M60 120 L90 90 L120 120" fill="#F9FAFB" stroke="#F9FAFB" stroke-width="2"/>
  
  <!-- Eraser Trail Effect -->
  <path d="M120 60 Q135 80 150 100 L150 60 Z" fill="#DDD6FE" opacity="0.3"/>
  
  <!-- Subtle Gradient Overlay -->
  <rect x="50" y="60" width="100" height="80" rx="8" fill="url(#gradient)" opacity="0.1"/>
  
  <!-- Gradient Definition -->
  <defs>
    <linearGradient id="gradient" x1="0%" y1="0%" x2="100%" y2="100%">
      <stop offset="0%" style="stop-color:#ffffff;stop-opacity:0.2"/>
      <stop offset="100%" style="stop-color:#000000;stop-opacity:0.1"/>
    </linearGradient>
  </defs>
</svg>
